<svg width="103" height="38" viewBox="0 0 103 38" fill="none" xmlns="http://www.w3.org/2000/svg">
<g clip-path="url(#clip0_889_15)">
<path d="M8.56202 0C14.1141 0 16.9699 3.35699 16.9699 9.2286V10.6535H11.5722V8.86117C11.5722 6.24082 10.5345 5.2443 8.71811 5.2443C6.90172 5.2443 5.86403 6.24082 5.86403 8.86117C5.86403 16.4122 17.0214 17.8227 17.0214 28.3149C17.0214 34.1883 14.1141 37.5435 8.50702 37.5435C2.89997 37.5435 -0.00732422 34.1883 -0.00732422 28.3149V25.8057H5.39042V28.6895C5.39042 31.3116 6.53099 32.2544 8.34738 32.2544C10.1638 32.2544 11.3061 31.3116 11.3061 28.6895C11.3061 21.1385 0.148773 19.7279 0.148773 9.23576C0.155868 3.35699 3.0064 0 8.56202 0Z" fill="#8F0449"/>
<path d="M25.9989 37.1241H20.2908V0.419434H25.9989V16.1505H32.4858V0.419434H38.3057V37.1241H32.4858V21.3948H25.9989V37.1241Z" fill="#8F0449"/>
<path d="M48.1576 15.8888H55.9925V21.1313H48.1576V31.8852H58.0165V37.1277H42.4476V0.419434H58.0165V5.66373H48.1576V15.8888Z" fill="#8F0449"/>
<path d="M61.5427 0.419434H67.2544V31.8816H76.6468V37.1241H61.5427V0.419434Z" fill="#8F0449"/>
<path d="M84.9573 16.7276H92.3186V21.9702H84.9573V37.1241H79.2402V0.419434H94.3426V5.66373H84.9573V16.7276Z" fill="#8F0449"/>
<path d="M98.55 9.25903H101.342C101.729 9.25903 102.1 9.41425 102.373 9.69055C102.646 9.96684 102.8 10.3416 102.8 10.7323V35.6454C102.8 36.0361 102.646 36.4109 102.373 36.6872C102.1 36.9635 101.729 37.1187 101.342 37.1187H98.55C98.1633 37.1187 97.7924 36.9635 97.519 36.6872C97.2455 36.4109 97.0919 36.0361 97.0919 35.6454V10.7323C97.0919 10.3416 97.2455 9.96684 97.519 9.69055C97.7924 9.41425 98.1633 9.25903 98.55 9.25903Z" fill="#8F0449"/>
<path d="M99.9655 6.42353C101.571 6.42353 102.873 5.10832 102.873 3.48593C102.873 1.86355 101.571 0.54834 99.9655 0.54834C98.3599 0.54834 97.0582 1.86355 97.0582 3.48593C97.0582 5.10832 98.3599 6.42353 99.9655 6.42353Z" fill="#8F0449"/>
</g>
<defs>
<clipPath id="clip0_889_15">
<rect width="102.873" height="37.5435" fill="white"/>
</clipPath>
</defs>
</svg>
